<?xml version="1.0" encoding="iso-8859-1"?>
<!-- Generator: Adobe Illustrator 19.0.0, SVG Export Plug-In . SVG Version: 6.00 Build 0)  -->
<svg xmlns="http://www.w3.org/2000/svg" xmlns:xlink="http://www.w3.org/1999/xlink" version="1.1" id="Capa_1" x="0px" y="0px" viewBox="0 0 508 508" style="enable-background:new 0 0 508 508;" xml:space="preserve" width="512px" height="512px">
<g>
	<g>
		<path d="M467,0H41C18.4,0,0,18.4,0,41v360.5c0,22.6,18.4,41,41,41h41V508h163.9v-65.5H467c22.6,0,41-18.4,41-41V41    C508,18.4,489.6,0,467,0z M229.4,491.6H98.3V368.7h131.1V491.6z M81.9,352.3v32.8H65.5v-49.2h196.6v49.2h-16.4v-32.8H81.9z     M491.6,401.5c0,13.6-11,24.6-24.6,24.6H245.8v-24.6h32.8v-81.9H49.2v81.9H82v24.6H41c-13.6,0-24.6-11-24.6-24.6V41    c0-13.6,11-24.6,24.6-24.6h426c13.6,0,24.6,11,24.6,24.6V401.5z" fill="#FFFFFF"/>
	</g>
</g>
<g>
	<g>
		<path d="M49.2,49.2V295h229.4V49.2H49.2z M262.1,278.5H65.5v-213h196.6V278.5z" fill="#FFFFFF"/>
	</g>
</g>
<g>
	<g>
		<path d="M295,81.9v49.2h49.2V81.9H295z M327.8,114.7h-16.4V98.3h16.4V114.7z" fill="#FFFFFF"/>
	</g>
</g>
<g>
	<g>
		<path d="M360.5,81.9v49.2h49.2V81.9H360.5z M393.3,114.7h-16.4V98.3h16.4V114.7z" fill="#FFFFFF"/>
	</g>
</g>
<g>
	<g>
		<path d="M426.1,81.9v49.2h49.2V81.9H426.1z M458.9,114.7h-16.4V98.3h16.4V114.7z" fill="#FFFFFF"/>
	</g>
</g>
<g>
	<g>
		<path d="M295,147.4v49.2h49.2v-49.2H295z M327.8,180.3h-16.4v-16.4h16.4V180.3z" fill="#FFFFFF"/>
	</g>
</g>
<g>
	<g>
		<path d="M360.5,147.4v49.2h49.2v-49.2H360.5z M393.3,180.3h-16.4v-16.4h16.4V180.3z" fill="#FFFFFF"/>
	</g>
</g>
<g>
	<g>
		<path d="M426.1,147.4v49.2h49.2v-49.2H426.1z M458.9,180.3h-16.4v-16.4h16.4V180.3z" fill="#FFFFFF"/>
	</g>
</g>
<g>
	<g>
		<path d="M295,213v49.2h49.2V213H295z M327.8,245.8h-16.4v-16.4h16.4V245.8z" fill="#FFFFFF"/>
	</g>
</g>
<g>
	<g>
		<path d="M360.5,213v49.2h49.2V213H360.5z M393.3,245.8h-16.4v-16.4h16.4V245.8z" fill="#FFFFFF"/>
	</g>
</g>
<g>
	<g>
		<path d="M426.1,213v49.2h49.2V213H426.1z M458.9,245.8h-16.4v-16.4h16.4V245.8z" fill="#FFFFFF"/>
	</g>
</g>
<g>
	<g>
		<rect x="295" y="49.2" width="180.3" height="16.4" fill="#FFFFFF"/>
	</g>
</g>
</svg>
