<?xml version="1.0" encoding="utf-8"?>
<!-- Generator: Adobe Illustrator 19.2.1, SVG Export Plug-In . SVG Version: 6.00 Build 0)  -->
<svg version="1.1" id="Layer_1" xmlns="http://www.w3.org/2000/svg" xmlns:xlink="http://www.w3.org/1999/xlink" x="0px" y="0px"
	 viewBox="0 0 1920 600" style="enable-background:new 0 0 1920 600;" xml:space="preserve">
<style type="text/css">
	.st0{fill:#49BC93;stroke:#49BC93;stroke-width:0.5;stroke-miterlimit:10;}
</style>
<g>
	<path class="st0" d="M944.4,281.8c-2,0-3.6,1.6-3.6,3.6c0,2,1.6,3.6,3.6,3.6c2,0,3.6-1.6,3.6-3.6
		C948,283.4,946.4,281.8,944.4,281.8L944.4,281.8z M944.4,287.4c-1.1,0-2-0.9-2-2c0-1.1,0.9-2,2-2c1.1,0,2,0.9,2,2
		C946.4,286.5,945.5,287.4,944.4,287.4L944.4,287.4z M944.4,287.4"/>
	<path class="st0" d="M976.8,284.2c0,0.4-0.4,0.8-0.8,0.8c-0.4,0-0.8-0.4-0.8-0.8c0-0.4,0.4-0.8,0.8-0.8
		C976.4,283.4,976.8,283.8,976.8,284.2L976.8,284.2z M976.8,284.2"/>
	<path class="st0" d="M973.6,284.2c0,0.4-0.4,0.8-0.8,0.8c-0.4,0-0.8-0.4-0.8-0.8c0-0.4,0.4-0.8,0.8-0.8
		C973.2,283.4,973.6,283.8,973.6,284.2L973.6,284.2z M973.6,284.2"/>
	<path class="st0" d="M978.4,286.6c0,0.4-0.4,0.8-0.8,0.8c-0.4,0-0.8-0.4-0.8-0.8c0-0.4,0.4-0.8,0.8-0.8
		C978,285.8,978.4,286.2,978.4,286.6L978.4,286.6z M978.4,286.6"/>
	<path class="st0" d="M975.2,286.6c0,0.4-0.4,0.8-0.8,0.8c-0.4,0-0.8-0.4-0.8-0.8c0-0.4,0.4-0.8,0.8-0.8
		C974.8,285.8,975.2,286.2,975.2,286.6L975.2,286.6z M975.2,286.6"/>
	<path class="st0" d="M970.4,284.2c0,0.4-0.4,0.8-0.8,0.8c-0.4,0-0.8-0.4-0.8-0.8c0-0.4,0.4-0.8,0.8-0.8
		C970,283.4,970.4,283.8,970.4,284.2L970.4,284.2z M970.4,284.2"/>
	<path class="st0" d="M972,286.6c0,0.4-0.4,0.8-0.8,0.8c-0.4,0-0.8-0.4-0.8-0.8c0-0.4,0.4-0.8,0.8-0.8
		C971.6,285.8,972,286.2,972,286.6L972,286.6z M972,286.6"/>
	<path class="st0" d="M967.2,284.2c0,0.4-0.4,0.8-0.8,0.8c-0.4,0-0.8-0.4-0.8-0.8c0-0.4,0.4-0.8,0.8-0.8
		C966.8,283.4,967.2,283.8,967.2,284.2L967.2,284.2z M967.2,284.2"/>
	<path class="st0" d="M968.8,286.6c0,0.4-0.4,0.8-0.8,0.8s-0.8-0.4-0.8-0.8c0-0.4,0.4-0.8,0.8-0.8S968.8,286.2,968.8,286.6
		L968.8,286.6z M968.8,286.6"/>
	<path class="st0" d="M964,284.2c0,0.4-0.4,0.8-0.8,0.8c-0.4,0-0.8-0.4-0.8-0.8c0-0.4,0.4-0.8,0.8-0.8
		C963.6,283.4,964,283.8,964,284.2L964,284.2z M964,284.2"/>
	<path class="st0" d="M965.6,286.6c0,0.4-0.4,0.8-0.8,0.8c-0.4,0-0.8-0.4-0.8-0.8c0-0.4,0.4-0.8,0.8-0.8
		C965.2,285.8,965.6,286.2,965.6,286.6L965.6,286.6z M965.6,286.6"/>
	<path class="st0" d="M984,290.1v-9.4c0-2-1.7-3.7-3.7-3.7h-40.6c-2,0-3.7,1.7-3.7,3.7v9.4c0,1.2,0.6,2.2,1.4,2.9
		c-0.9,0.7-1.4,1.7-1.4,2.9v9.4c0,1.2,0.6,2.2,1.4,2.9c-0.9,0.7-1.4,1.7-1.4,2.9v9.4c0,2,1.7,3.7,3.7,3.7h40.6c2,0,3.7-1.7,3.7-3.7
		v-9.4c0-1.2-0.6-2.2-1.4-2.9c0.9-0.7,1.4-1.7,1.4-2.9v-9.4c0-1.2-0.6-2.2-1.4-2.9C983.4,292.3,984,291.3,984,290.1L984,290.1z
		 M982.4,311.1v9.4c0,1.2-0.9,2.1-2.1,2.1h-40.6c-1.2,0-2.1-0.9-2.1-2.1v-9.4c0-1.1,0.9-2.1,2.1-2.1h40.6
		C981.5,309,982.4,309.9,982.4,311.1L982.4,311.1z M982.4,295.9v9.4c0,1.2-0.9,2.1-2.1,2.1h-40.6c-1.2,0-2.1-0.9-2.1-2.1v-9.4
		c0-1.2,0.9-2.1,2.1-2.1h40.6C981.5,293.8,982.4,294.7,982.4,295.9L982.4,295.9z M939.7,292.2c-1.2,0-2.1-0.9-2.1-2.1v-9.4
		c0-1.2,0.9-2.1,2.1-2.1h40.6c1.2,0,2.1,0.9,2.1,2.1v9.4c0,1.1-0.9,2.1-2.1,2.1H939.7z M939.7,292.2"/>
	<path class="st0" d="M944.4,304.2c2,0,3.6-1.6,3.6-3.6c0-2-1.6-3.6-3.6-3.6c-2,0-3.6,1.6-3.6,3.6
		C940.8,302.6,942.4,304.2,944.4,304.2L944.4,304.2z M944.4,298.6c1.1,0,2,0.9,2,2c0,1.1-0.9,2-2,2c-1.1,0-2-0.9-2-2
		C942.4,299.5,943.3,298.6,944.4,298.6L944.4,298.6z M944.4,298.6"/>
	<path class="st0" d="M976.8,299.4c0,0.4-0.4,0.8-0.8,0.8c-0.4,0-0.8-0.4-0.8-0.8c0-0.4,0.4-0.8,0.8-0.8
		C976.4,298.6,976.8,299,976.8,299.4L976.8,299.4z M976.8,299.4"/>
	<path class="st0" d="M973.6,299.4c0,0.4-0.4,0.8-0.8,0.8c-0.4,0-0.8-0.4-0.8-0.8c0-0.4,0.4-0.8,0.8-0.8
		C973.2,298.6,973.6,299,973.6,299.4L973.6,299.4z M973.6,299.4"/>
	<path class="st0" d="M978.4,301.8c0,0.4-0.4,0.8-0.8,0.8c-0.4,0-0.8-0.4-0.8-0.8c0-0.4,0.4-0.8,0.8-0.8
		C978,301,978.4,301.4,978.4,301.8L978.4,301.8z M978.4,301.8"/>
	<path class="st0" d="M975.2,301.8c0,0.4-0.4,0.8-0.8,0.8c-0.4,0-0.8-0.4-0.8-0.8c0-0.4,0.4-0.8,0.8-0.8
		C974.8,301,975.2,301.4,975.2,301.8L975.2,301.8z M975.2,301.8"/>
	<path class="st0" d="M970.4,299.4c0,0.4-0.4,0.8-0.8,0.8c-0.4,0-0.8-0.4-0.8-0.8c0-0.4,0.4-0.8,0.8-0.8
		C970,298.6,970.4,299,970.4,299.4L970.4,299.4z M970.4,299.4"/>
	<path class="st0" d="M972,301.8c0,0.4-0.4,0.8-0.8,0.8c-0.4,0-0.8-0.4-0.8-0.8c0-0.4,0.4-0.8,0.8-0.8
		C971.6,301,972,301.4,972,301.8L972,301.8z M972,301.8"/>
	<path class="st0" d="M967.2,299.4c0,0.4-0.4,0.8-0.8,0.8c-0.4,0-0.8-0.4-0.8-0.8c0-0.4,0.4-0.8,0.8-0.8
		C966.8,298.6,967.2,299,967.2,299.4L967.2,299.4z M967.2,299.4"/>
	<path class="st0" d="M968.8,301.8c0,0.4-0.4,0.8-0.8,0.8s-0.8-0.4-0.8-0.8c0-0.4,0.4-0.8,0.8-0.8S968.8,301.4,968.8,301.8
		L968.8,301.8z M968.8,301.8"/>
	<path class="st0" d="M964,299.4c0,0.4-0.4,0.8-0.8,0.8c-0.4,0-0.8-0.4-0.8-0.8c0-0.4,0.4-0.8,0.8-0.8
		C963.6,298.6,964,299,964,299.4L964,299.4z M964,299.4"/>
	<path class="st0" d="M965.6,301.8c0,0.4-0.4,0.8-0.8,0.8c-0.4,0-0.8-0.4-0.8-0.8c0-0.4,0.4-0.8,0.8-0.8
		C965.2,301,965.6,301.4,965.6,301.8L965.6,301.8z M965.6,301.8"/>
	<path class="st0" d="M944.4,319.4c2,0,3.6-1.6,3.6-3.6c0-2-1.6-3.6-3.6-3.6c-2,0-3.6,1.6-3.6,3.6
		C940.8,317.8,942.4,319.4,944.4,319.4L944.4,319.4z M944.4,313.8c1.1,0,2,0.9,2,2c0,1.1-0.9,2-2,2c-1.1,0-2-0.9-2-2
		C942.4,314.7,943.3,313.8,944.4,313.8L944.4,313.8z M944.4,313.8"/>
	<path class="st0" d="M976.8,314.6c0,0.4-0.4,0.8-0.8,0.8c-0.4,0-0.8-0.4-0.8-0.8c0-0.4,0.4-0.8,0.8-0.8
		C976.4,313.8,976.8,314.2,976.8,314.6L976.8,314.6z M976.8,314.6"/>
	<path class="st0" d="M973.6,314.6c0,0.4-0.4,0.8-0.8,0.8c-0.4,0-0.8-0.4-0.8-0.8c0-0.4,0.4-0.8,0.8-0.8
		C973.2,313.8,973.6,314.2,973.6,314.6L973.6,314.6z M973.6,314.6"/>
	<path class="st0" d="M978.4,317c0,0.4-0.4,0.8-0.8,0.8c-0.4,0-0.8-0.4-0.8-0.8s0.4-0.8,0.8-0.8C978,316.2,978.4,316.6,978.4,317
		L978.4,317z M978.4,317"/>
	<path class="st0" d="M975.2,317c0,0.4-0.4,0.8-0.8,0.8c-0.4,0-0.8-0.4-0.8-0.8s0.4-0.8,0.8-0.8C974.8,316.2,975.2,316.6,975.2,317
		L975.2,317z M975.2,317"/>
	<path class="st0" d="M970.4,314.6c0,0.4-0.4,0.8-0.8,0.8c-0.4,0-0.8-0.4-0.8-0.8c0-0.4,0.4-0.8,0.8-0.8
		C970,313.8,970.4,314.2,970.4,314.6L970.4,314.6z M970.4,314.6"/>
	<path class="st0" d="M972,317c0,0.4-0.4,0.8-0.8,0.8c-0.4,0-0.8-0.4-0.8-0.8s0.4-0.8,0.8-0.8C971.6,316.2,972,316.6,972,317
		L972,317z M972,317"/>
	<path class="st0" d="M967.2,314.6c0,0.4-0.4,0.8-0.8,0.8c-0.4,0-0.8-0.4-0.8-0.8c0-0.4,0.4-0.8,0.8-0.8
		C966.8,313.8,967.2,314.2,967.2,314.6L967.2,314.6z M967.2,314.6"/>
	<path class="st0" d="M968.8,317c0,0.4-0.4,0.8-0.8,0.8s-0.8-0.4-0.8-0.8s0.4-0.8,0.8-0.8S968.8,316.6,968.8,317L968.8,317z
		 M968.8,317"/>
	<path class="st0" d="M964,314.6c0,0.4-0.4,0.8-0.8,0.8c-0.4,0-0.8-0.4-0.8-0.8c0-0.4,0.4-0.8,0.8-0.8
		C963.6,313.8,964,314.2,964,314.6L964,314.6z M964,314.6"/>
	<path class="st0" d="M965.6,317c0,0.4-0.4,0.8-0.8,0.8c-0.4,0-0.8-0.4-0.8-0.8s0.4-0.8,0.8-0.8C965.2,316.2,965.6,316.6,965.6,317
		L965.6,317z M965.6,317"/>
</g>
</svg>
