<?xml version="1.0" encoding="iso-8859-1"?>
<!-- Generator: Adobe Illustrator 19.0.0, SVG Export Plug-In . SVG Version: 6.00 Build 0)  -->
<svg version="1.1" id="Layer_1" xmlns="http://www.w3.org/2000/svg" xmlns:xlink="http://www.w3.org/1999/xlink" x="0px" y="0px"
	 viewBox="0 0 512 512" style="enable-background:new 0 0 512 512;" xml:space="preserve">
<path style="fill:#E6EEFF;" d="M256,51.05l-195,105V497c0,8.291,6.709,15,15,15h360c8.291,0,15-6.709,15-15V156.05L256,51.05z"/>
<path style="fill:#DAE2F2;" d="M436,512c8.291,0,15-6.709,15-15V156.05l-195-105V512H436z"/>
<path style="fill:#757982;" d="M436,30h-60c-8.291,0-15,6.709-15,15v58.945l90,40.005V45C451,36.709,444.291,30,436,30z"/>
<path style="fill:#A780FF;" d="M256,450c-74.443,0-135-60.557-135-135s60.557-135,135-135s135,60.557,135,135S330.443,450,256,450z"
	/>
<path style="fill:#9466FF;" d="M391,315c0-74.443-60.557-135-135-135v270C330.443,450,391,389.443,391,315z"/>
<path style="fill:#E6EEFF;" d="M256,210c-57.891,0-105,47.109-105,105s47.109,105,105,105s105-47.109,105-105S313.891,210,256,210z"
	/>
<path style="fill:#DAE2F2;" d="M361,315c0-57.891-47.109-105-105-105v210C313.891,420,361,372.891,361,315z"/>
<path style="fill:#5C5F66;" d="M316,330h-60c-8.291,0-15-6.709-15-15v-60c0-8.291,6.709-15,15-15c8.291,0,15,6.709,15,15v45h45
	c8.291,0,15,6.709,15,15S324.291,330,316,330z"/>
<path style="fill:#53565C;" d="M316,330c8.291,0,15-6.709,15-15s-6.709-15-15-15h-45v-45c0-8.291-6.709-15-15-15v90H316z"/>
<path style="fill:#4DB5FF;" d="M508.599,185.4l-16.8,25.199c-4.499,6.901-13.799,8.701-20.7,4.2L256,69L40.901,214.8
	c-6.901,4.501-16.201,2.701-20.7-4.2l-16.8-25.2c-4.501-6.9-2.701-16.2,4.198-20.7l240-162.301C250,0.599,253.001,0,256,0
	s6,0.599,8.401,2.399l240,162.301C511.3,169.2,513.1,178.5,508.599,185.4z"/>
<path style="fill:#4D97FF;" d="M508.599,185.4l-16.8,25.199c-4.499,6.901-13.799,8.701-20.7,4.2L256,69V0
	c2.999,0,6,0.599,8.401,2.399l240,162.301C511.3,169.2,513.1,178.5,508.599,185.4z"/>
<g>
</g>
<g>
</g>
<g>
</g>
<g>
</g>
<g>
</g>
<g>
</g>
<g>
</g>
<g>
</g>
<g>
</g>
<g>
</g>
<g>
</g>
<g>
</g>
<g>
</g>
<g>
</g>
<g>
</g>
</svg>
